<?xml version="1.0" encoding="UTF-8" standalone="no"?>
<svg
   id="Layer_1"
   data-name="Layer 1"
   viewBox="0 0 506.86 506.86"
   version="1.1"
   sodipodi:docname="facebook-round-color.svg"
   inkscape:version="1.1 (c68e22c387, 2021-05-23)"
   xmlns:inkscape="http://www.inkscape.org/namespaces/inkscape"
   xmlns:sodipodi="http://sodipodi.sourceforge.net/DTD/sodipodi-0.dtd"
   xmlns="http://www.w3.org/2000/svg"
   xmlns:svg="http://www.w3.org/2000/svg">
  <sodipodi:namedview
     id="namedview33"
     pagecolor="#ffffff"
     bordercolor="#666666"
     borderopacity="1.0"
     inkscape:pageshadow="2"
     inkscape:pageopacity="0.0"
     inkscape:pagecheckerboard="0"
     showgrid="false"
     inkscape:zoom="1.5014008"
     inkscape:cx="194.81807"
     inkscape:cy="253.43"
     inkscape:window-width="1920"
     inkscape:window-height="991"
     inkscape:window-x="-9"
     inkscape:window-y="-9"
     inkscape:window-maximized="1"
     inkscape:current-layer="Layer_1" />
  <defs
     id="defs24">
    <style
       id="style22">.cls-1{fill:#1877f2;}.cls-2{fill:#fff;}</style>
  </defs>
  <title
     id="title26">facebook-round-color</title>
  <path
     class="cls-1"
     d="M506.86,253.43C506.86,113.46,393.39,0,253.43,0S0,113.46,0,253.43C0,379.92,92.68,484.77,213.83,503.78V326.69H149.48V253.43h64.35V197.6c0-63.52,37.84-98.6,95.72-98.6,27.73,0,56.73,5,56.73,5v62.36H334.33c-31.49,0-41.3,19.54-41.3,39.58v47.54h70.28l-11.23,73.26H293V503.78C414.18,484.77,506.86,379.92,506.86,253.43Z"
     id="path28" />
  <path
     class="cls-2"
     d="M352.08,326.69l11.23-73.26H293V205.89c0-20,9.81-39.58,41.3-39.58h31.95V104s-29-5-56.73-5c-57.88,0-95.72,35.08-95.72,98.6v55.83H149.48v73.26h64.35V503.78a256.11,256.11,0,0,0,79.2,0V326.69Z"
     id="path30" />
  <path
     style="fill:#2f3243;stroke:none;stroke-width:0.666045;fill-opacity:1"
     d="m 209.13803,502.72801 c -0.91581,-0.15804 -5.71133,-1.20162 -10.65672,-2.31907 C 159.52276,491.60595 125.60703,475.16685 93.453055,449.5013 84.062784,442.00592 63.995278,421.72034 55.974636,411.61561 30.414022,379.4133 13.23588,342.69354 5.382389,303.47031 1.3723209,283.44255 -0.06082513,264.39802 0.76467251,242.10724 2.7237957,189.20534 22.229415,137.43049 56.204022,94.951496 64.10326,85.074952 82.048445,66.842772 91.914166,58.670258 127.53855,29.159902 171.62922,9.5231981 216.79754,3.0508289 c 38.94004,-5.5798901 78.88413,-2.17583415 115.2529,9.8219121 29.27048,9.656079 55.59104,23.983142 80.63869,43.894032 9.60102,7.632044 29.71342,27.823805 37.66297,37.811571 27.51236,34.566386 45.33222,73.896716 52.51356,115.903066 4.59164,26.85816 4.57189,59.38192 -0.0522,86.04817 -13.67435,78.8569 -64.38916,147.1648 -135.92493,183.07764 -21.84633,10.96742 -50.5273,20.42015 -70.66514,23.28993 l -3.16372,0.45086 v -87.99353 -87.99352 h 29.58606 29.58607 l 0.36913,-1.83162 c 0.20301,-1.0074 2.63292,-16.81763 5.39979,-35.13386 2.76686,-18.31623 5.196,-34.12646 5.3981,-35.13386 L 363.76624,253.43 H 328.346 292.92577 l 0.29807,-27.47434 c 0.27583,-25.42386 0.40401,-27.86329 1.7175,-32.68583 2.84038,-10.42853 8.60137,-17.68537 17.43361,-21.96027 8.03737,-3.89019 12.495,-4.46537 34.60625,-4.46537 h 19.34337 v -31.563 -31.56299 l -2.16464,-0.39854 c -4.70056,-0.86542 -23.96137,-3.07836 -32.4363,-3.726705 -12.93762,-0.989749 -31.78396,-0.834108 -39.97605,0.330145 -43.50611,6.18303 -70.72907,33.86404 -76.914,78.20816 -0.8232,5.90209 -1.03324,14.30838 -1.03324,41.35336 V 253.43 h -32.30317 -32.30316 v 36.63246 36.63245 h 32.30316 32.30317 v 88.25092 88.25092 l -1.4986,-0.0907 c -0.82423,-0.0499 -2.2479,-0.22001 -3.16371,-0.37804 z"
     id="path171" />
</svg>
