<?xml version="1.0" encoding="UTF-8" standalone="no"?>
<svg
   viewBox="0 0 3333 3333"
   shape-rendering="geometricPrecision"
   text-rendering="geometricPrecision"
   image-rendering="optimizeQuality"
   fill-rule="evenodd"
   clip-rule="evenodd"
   version="1.1"
   id="svg5294"
   sodipodi:docname="instagram-round.svg"
   inkscape:version="1.1 (c68e22c387, 2021-05-23)"
   xmlns:inkscape="http://www.inkscape.org/namespaces/inkscape"
   xmlns:sodipodi="http://sodipodi.sourceforge.net/DTD/sodipodi-0.dtd"
   xmlns="http://www.w3.org/2000/svg"
   xmlns:svg="http://www.w3.org/2000/svg">
  <defs
     id="defs5298" />
  <sodipodi:namedview
     id="namedview5296"
     pagecolor="#ffffff"
     bordercolor="#666666"
     borderopacity="1.0"
     inkscape:pageshadow="2"
     inkscape:pageopacity="0.0"
     inkscape:pagecheckerboard="0"
     showgrid="false"
     inkscape:zoom="0.22832283"
     inkscape:cx="1666.5"
     inkscape:cy="1651.1708"
     inkscape:window-width="1920"
     inkscape:window-height="991"
     inkscape:window-x="-9"
     inkscape:window-y="-9"
     inkscape:window-maximized="1"
     inkscape:current-layer="svg5294" />
  <path
     d="M1667 0c920 0 1667 746 1667 1667 0 920-746 1667-1667 1667C747 3334 0 2588 0 1667 0 747 746 0 1667 0zm-390 752h780c293 0 532 237 532 525v778c0 289-239 525-532 525h-780c-293 0-532-236-532-525v-778c0-289 240-525 532-525zm385 421c285 0 516 231 516 516s-231 516-516 516-516-231-516-516 231-516 516-516zm0 174c188 0 341 153 341 341s-153 341-341 341c-189 0-341-153-341-341s153-341 341-341zm499-246c46 0 84 37 84 84 0 46-37 84-84 84-46 0-84-37-84-84 0-46 37-84 84-84zm-820-200h652c245 0 445 199 445 443v656c0 244-200 443-445 443h-652c-245 0-445-199-445-443v-656c0-244 200-443 445-443z"
     id="path5292" />
  <path
     style="fill:#2f3243;stroke-width:4.37976"
     d="m 1548.2464,3328.1703 c -72.0755,-7.1498 -113.1716,-12.4983 -166.431,-21.6602 C 891.20123,3222.1124 459.70032,2915.9944 213.72464,2477.8359 100.46885,2276.0925 32.618264,2056.7918 8.773833,1815.412 2.8683636,1755.6302 2.9052614,1585.1831 8.8379904,1519.0408 33.968815,1238.8646 130.45064,968.77412 289.40976,733.61038 396.09971,575.77352 552.58919,416.51752 709.52168,306.07144 843.6875,211.6481 998.88157,133.89186 1154.9023,82.924217 c 99.1986,-32.405432 230.5199,-60.077688 345.1667,-72.734113 68.5022,-7.5622976 264.3987,-7.5594661 332.862,0.0048 214.166,23.662459 395.3436,76.987091 582.5086,171.445386 239.281,120.76019 440.229,291.56685 599.1372,509.26913 290.348,397.77328 388.1173,913.46038 263.962,1392.27518 -139.8792,539.4553 -544.2229,977.0327 -1068.9481,1156.807 -114.3992,39.1939 -217.9626,63.3197 -344.796,80.3225 -46.9762,6.2974 -275.1705,11.9608 -316.5483,7.8562 z m 589.0964,-752.6265 c 114.7342,-17.2961 216.4031,-68.7087 298.2045,-150.7981 61.4588,-61.6751 97.9434,-119.2099 125.9522,-198.6219 30.0842,-85.2963 29.1306,-66.9767 29.1306,-559.6238 0,-488.0953 0.7959,-471.665 -26.884,-554.959 -60.183,-181.10142 -223.4474,-320.23315 -414.9701,-353.63191 -57.9512,-10.10582 -899.4373,-10.12006 -961.7398,-0.0175 -109.9868,17.83694 -207.01814,68.32002 -289.55119,150.64661 -68.1312,67.96079 -112.79218,145.1114 -138.85085,239.861 l -11.79729,42.8952 -1.27446,457.1535 c -1.10931,397.9268 -0.39112,462.2732 5.54504,496.6703 28.07875,162.7079 134.52084,304.0442 286.89645,380.948 42.2311,21.314 106.0441,41.7724 153.2918,49.1453 56.8384,8.8696 887.4789,9.1602 946.0471,0.3311 z"
     id="path5436" />
  <path
     style="fill:#2f3243;stroke-width:4.37976"
     d="m 1284.3642,2437.1507 c -196.2167,-26.2446 -356.39637,-186.1421 -382.11833,-381.4452 -3.2866,-24.9547 -4.38314,-154.6271 -3.43935,-406.7246 l 1.38552,-370.09 11.45175,-41.658 c 44.17933,-160.7112 162.63331,-277.72546 325.05911,-321.10842 35.3145,-9.43228 38.9997,-9.51344 431.987,-9.51344 h 396.3686 l 37.228,10.19446 c 166.448,45.57992 290.3443,176.7225 324.2795,343.2455 8.6108,42.2536 8.8552,56.0761 7.5605,427.6211 -1.3197,378.718 -1.4676,384.4146 -10.8447,417.5726 -23.2986,82.3859 -59.5372,145.2528 -117.18,203.2845 -58.1528,58.5451 -123.914,96.3391 -207.2937,119.1351 l -42.5092,11.6219 -372.2798,0.7629 c -204.754,0.4196 -384.5987,-0.8846 -399.6549,-2.8984 z m 469.968,-238.6732 c 128.1768,-22.3522 246.0859,-95.9558 325.5993,-203.2523 124.5821,-168.1126 133.1959,-402.2853 21.3959,-581.6608 -12.7213,-20.4105 -41.348,-56.3742 -63.6149,-79.9195 -79.8752,-84.4609 -178.35,-137.1383 -290.3072,-155.2948 -172.3461,-27.95 -341.2241,28.7338 -461.0605,154.7546 -152.5573,160.4303 -185.9474,399.8224 -83.2119,596.5915 72.457,138.7768 210.695,240.9473 363.3126,268.5211 46.8112,8.4575 140.1386,8.5867 187.8867,0.2602 z m 428.9799,-930.9905 c 53.5274,-14.6213 79.1737,-73.5767 53.3259,-122.5849 -24.8469,-47.1104 -86.027,-60.1512 -128.9173,-27.4793 -51.7639,39.4314 -37.8514,126.5589 23.7139,148.51 20.7521,7.3991 29.5184,7.6617 51.8775,1.5542 z"
     id="path5475" />
  <path
     style="fill:#2f3243;stroke-width:4.37976"
     d="m 1591.4541,2019.1009 c -132.987,-28.9221 -236.4642,-136.37 -262.5301,-272.6042 -16.3869,-85.6465 4.8131,-179.7126 56.9775,-252.8145 28.7989,-40.358 75.7,-81.6887 117.1978,-103.2782 53.3941,-27.7787 81.1108,-35.1882 142.0158,-37.9651 68.6257,-3.1289 106.1746,4.6014 166.9223,34.3648 144.2863,70.6934 218.7719,235.1344 176.1597,388.9056 -34.6138,124.9081 -139.5635,222.1927 -264.4696,245.154 -34.5125,6.3443 -98.9449,5.4858 -132.2734,-1.7624 z"
     id="path5514" />
</svg>
