<?xml version="1.0" encoding="UTF-8" standalone="no"?>
<svg
   id="master-artboard"
   viewBox="0 0 247.08696 384.25186"
   data-name="Layer 1"
   width="247.08696"
   height="384.25186"
   version="1.1"
   sodipodi:docname="koru_logo3.svg"
   inkscape:version="1.1 (c68e22c387, 2021-05-23)"
   xmlns:inkscape="http://www.inkscape.org/namespaces/inkscape"
   xmlns:sodipodi="http://sodipodi.sourceforge.net/DTD/sodipodi-0.dtd"
   xmlns="http://www.w3.org/2000/svg"
   xmlns:svg="http://www.w3.org/2000/svg"
   xmlns:rdf="http://www.w3.org/1999/02/22-rdf-syntax-ns#"
   xmlns:cc="http://creativecommons.org/ns#"
   xmlns:dc="http://purl.org/dc/elements/1.1/">
  <defs
     id="defs43" />
  <sodipodi:namedview
     id="namedview41"
     pagecolor="#ffffff"
     bordercolor="#666666"
     borderopacity="1.0"
     inkscape:pageshadow="2"
     inkscape:pageopacity="0.0"
     inkscape:pagecheckerboard="0"
     showgrid="false"
     inkscape:zoom="1.1400293"
     inkscape:cx="241.66046"
     inkscape:cy="230.25724"
     inkscape:window-width="1920"
     inkscape:window-height="991"
     inkscape:window-x="-9"
     inkscape:window-y="-9"
     inkscape:window-maximized="1"
     inkscape:current-layer="master-artboard" />
  <title
     id="title2">Free Koru Vector-01</title>
  <path
     class="cls-1"
     d="m 170.31759,284.12914 c 5.10879,-19.26014 4.08704,-38.82681 -3.42289,-57.31042 -2.49309,-6.13055 -5.33358,-12.04653 -8.29668,-17.94207 1.4509,5.6401 2.70766,11.35173 3.66812,17.19619 5.50727,33.50345 9.19582,80.21824 -18.13621,105.2411 a 2.3193913,2.3193913 0 0 1 -0.1124,1.30785 78.379079,78.379079 0 0 1 -8.43972,15.24464 180.51404,180.51404 0 0 0 11.23934,-15.04028 c 10.0541,-14.91768 18.90253,-31.15342 23.50044,-48.69701 z"
     style="fill:#478267;fill-opacity:1;stroke-width:1.02176"
     id="path4" />
  <path
     class="cls-1"
     d="m 185.30679,250.75852 c -3.69877,-17.57424 -13.87548,-31.62342 -23.89893,-45.85651 a 188.75963,188.75963 0 0 1 11.5663,26.04461 c 6.39621,18.49383 5.83424,38.21377 1.02176,57.01412 -5.01683,19.78124 -14.39657,38.42833 -25.94244,55.17495 -2.40113,3.48419 -4.96575,7.07056 -7.72449,10.56498 31.08188,-25.28852 53.79557,-61.01941 44.9778,-102.94215 z"
     style="fill:#478267;fill-opacity:1;stroke-width:1.02176"
     id="path6" />
  <path
     class="cls-1"
     d="m 191.11037,235.37084 a 0.84805939,0.84805939 0 0 1 -0.28609,-0.24522 l -0.36783,-0.50067 q 0.59262,1.29764 1.15459,2.60549 c -0.16349,-0.60284 -0.32697,-1.22611 -0.50067,-1.8596 z"
     style="fill:#aed136;stroke-width:1.02176"
     id="path8" />
  <path
     class="cls-1"
     d="m 150.90418,171.44964 c -11.72978,-26.01397 -16.51161,-59.64003 2.62592,-83.57983 -1.32828,1.164805 -2.62592,2.370479 -3.83159,3.657895 a 46.939576,46.939576 0 0 0 -12.09762,23.500445 0.73566598,0.73566598 0 0 1 0,0.28609 110.95273,110.95273 0 0 0 2.42157,34.86239 q 0.59262,2.14569 1.25676,4.27095 c 1.50199,4.81248 3.06528,9.57388 4.67965,14.30462 a 142.0244,142.0244 0 0 0 15.48986,27.83269 c 14.94832,21.14018 29.36533,40.98273 30.17252,67.88562 1.02176,34.62739 -15.32637,64.17664 -38.92899,87.13555 a 110.14554,110.14554 0 0 0 41.46295,-70.18458 102.17583,102.17583 0 0 0 1.02176,-22.26411 149.87151,149.87151 0 0 0 -14.23309,-34.36173 c -9.80888,-17.85012 -21.63062,-34.68869 -30.0397,-53.346 z"
     style="fill:#478267;fill-opacity:1;stroke-width:1.02176"
     id="path10" />
  <path
     class="cls-1"
     d="m 201.236,75.853933 a 44.293222,44.293222 0 0 0 -8.40907,-1.542855 c 11.66848,3.647677 21.52845,12.445016 28.23118,22.478682 13.49743,20.23081 17.23706,56.03323 -7.97993,69.47956 -0.55175,0.29631 -1.12394,0.56197 -1.6859,0.81741 20.26146,-4.94531 29.7536,-30.65275 25.88113,-50.06616 C 233.55421,98.455226 219.79113,81.238599 201.236,75.853933 Z"
     style="fill:#478267;fill-opacity:1;stroke-width:1.02176"
     id="path12" />
  <path
     class="cls-1"
     d="m 224.21534,123.14091 c 0,-0.0817 0,-0.1737 0,-0.25544 -1.61438,-26.167233 -35.64914,-50.342034 -57.98478,-29.447077 -18.44274,17.257497 -15.06072,50.250077 -8.7769,71.931787 6.72317,23.17348 19.5871,43.68016 31.88907,64.22772 a 163.08284,163.08284 0 0 0 -9.26735,-22.00867 c -10.31975,-20.43517 -22.23346,-40.87033 -23.10195,-64.29925 -0.67436,-18.32013 6.42686,-40.87033 25.19656,-47.920464 18.7697,-7.050132 36.96721,10.217584 41.89209,27.168554 0.0511,0.19413 0.10218,0.43936 0.15326,0.60284 z"
     style="fill:#478267;fill-opacity:1;stroke-width:1.02176"
     id="path14" />
  <path
     class="cls-1"
     d="m 224.47078,146.47787 a 30.77536,30.77536 0 0 1 -14.7031,14.98919 19.10688,19.10688 0 0 1 -14.30462,0.90937 16.470744,16.470744 0 0 0 11.23935,0.45979 c 8.3682,-2.46244 14.30461,-8.77691 17.76837,-16.35835 z"
     style="fill:#aed136;stroke-width:1.02176"
     id="path16" />
  <path
     class="cls-1"
     d="m 147.06237,144.32196 a 110.28859,110.28859 0 0 0 6.82535,22.24367 124.86908,124.86908 0 0 1 -4.00529,-19.16818 c -2.52375,-20.43517 0.0817,-48.400692 19.50536,-60.569833 15.00963,-9.400177 34.21869,-3.412673 46.29587,8.470376 q -0.74588,-0.9298 -1.53264,-1.81873 C 205.28216,83.414944 190.04775,74.791304 176.26423,78.009843 148.46218,84.48779 142.73012,120.85217 147.06237,144.32196 Z"
     style="fill:#478267;fill-opacity:1;stroke-width:1.02176"
     id="path18" />
  <path
     class="cls-2"
     d="M 31.154112,291.28145 C 44.43697,228.21853 92.745702,181.08482 119.75077,124.27506 133.15624,96.064312 147.15433,53.620472 128.22115,24.878411 117.90139,9.2148563 97.568402,2.6040801 79.605891,6.9056825 A 52.273155,52.273155 0 0 0 67.211963,11.605771 c 15.8066,-1.9311235 31.572331,6.263378 41.330127,18.483607 12.65958,15.857689 14.23309,37.621141 9.85996,56.799544 -4.95552,21.743018 -17.73772,40.614888 -30.315565,58.628488 -14.038959,20.11842 -28.374228,40.04271 -42.096442,60.38592 -17.288151,25.64613 -33.830418,54.83777 -36.1906793,85.57226 a 239.0097,239.0097 0 0 0 5.3029253,30.81623 c 1.583726,6.87643 3.525066,14.36592 6.600559,20.99713 a 61.8879,61.8879 0 0 0 16.726183,17.36989 q 0.837842,0.31675 1.716554,0.59262 c -0.613055,-1.37937 -1.144369,-2.79962 -1.634813,-4.29138 -10.73868,-18.96384 -11.484563,-46.0813 -7.35666,-65.67863 z"
     style="fill:#478267;fill-opacity:1;stroke-width:1.02176"
     id="path20" />
  <path
     class="cls-1"
     d="m 45.775473,281.51344 c -4.087033,34.8624 8.654293,73.73008 40.032491,89.3119 q 1.808512,-0.24523 3.596589,-0.56197 C 61.101848,350.24712 45.550687,316.50867 45.775473,281.51344 Z"
     style="fill:#478267;fill-opacity:1;stroke-width:1.02176"
     id="path22" />
  <path
     class="cls-1"
     d="m 54.491072,265.60467 c -0.09196,0.38826 -0.183917,0.76632 -0.265657,1.15458 -0.08174,0.38827 0.122611,0.61306 0.173698,0.9298 0.02044,-0.70501 0.04087,-1.39981 0.09196,-2.08438 z"
     style="fill:#aed136;stroke-width:1.02176"
     id="path24" />
  <path
     class="cls-1"
     d="m 46.521357,331.93722 a 95.544619,95.544619 0 0 1 -5.967068,-38.22398 120.12812,120.12812 0 0 0 0.664142,42.33144 c 0.817407,4.08704 1.726772,8.76669 3.065275,13.28286 a 52.528594,52.528594 0 0 0 20.435166,21.45693 72.687885,72.687885 0 0 0 11.361953,0.76631 C 62.389263,362.16083 52.212551,346.99793 46.521357,331.93722 Z"
     style="fill:#478267;fill-opacity:1;stroke-width:1.02176"
     id="path26" />
  <path
     class="cls-1"
     d="m 58.527017,321.07592 a 52.03815,52.03815 0 0 1 -4.087033,-5.95685 c 7.152308,22.0802 20.802999,41.48339 40.952072,53.82623 a 89.066671,89.066671 0 0 0 8.899514,-2.77918 C 85.235779,355.81571 68.805906,339.97845 58.527017,321.07592 Z"
     style="fill:#478267;fill-opacity:1;stroke-width:1.02176"
     id="path28" />
  <path
     class="cls-1"
     d="M 79.605891,335.71772 A 39.531829,39.531829 0 0 1 67.508272,329.72 105.42502,105.42502 0 0 0 109.40036,364.09195 c 1.64503,-0.72545 3.26963,-1.49177 4.86357,-2.29896 a 23.827404,23.827404 0 0 0 0.16348,-2.84049 c -10.6365,-8.47037 -23.214345,-14.23309 -33.646497,-22.92825 z"
     style="fill:#478267;fill-opacity:1;stroke-width:1.02176"
     id="path30" />
  <path
     class="cls-1"
     d="m 108.19469,92.641421 c 6.64143,-19.914069 6.90708,-44.242134 -8.17407,-60.539179 a 42.208835,42.208835 0 0 0 -8.603203,-7.152308 c -10.217583,-3.657895 -22.06998,-3.463761 -30.550573,4.087033 -6.549471,5.854675 -6.569906,14.784843 -3.617025,23.132608 -0.245222,-12.393928 8.736034,-24.90025 24.471111,-24.60394 10.881726,0.204352 19.96516,8.32733 23.86827,18.115775 5.22119,13.119377 1.58373,28.333358 -3.06527,41.064466 C 91.100672,118.13429 70.767681,144.73066 51.967329,171.92987 38.980781,190.72 26.127061,210.75668 17.922342,232.36687 33.555244,202.52131 55.666094,175.57754 75.038631,148.58269 87.657346,131.15149 101.29782,113.32181 108.19469,92.641421 Z"
     style="fill:#478267;fill-opacity:1;stroke-width:1.02176"
     id="path32" />
  <path
     class="cls-1"
     d="m 184.74482,132.45934 q 0.44957,-0.88893 0.9298,-1.76764 -0.62327,0.88893 -1.17502,1.83917 z"
     style="fill:#aed136;stroke-width:1.02176"
     id="path34" />
  <path
     class="cls-1"
     d="M 55.451525,27.003668 A 25.543957,25.543957 0 0 1 67.661536,19.146347 27.005072,27.005072 0 0 0 50.874047,27.872163 C 44.549363,34.748596 40.830163,44.812915 43.425429,54.059828 46.102436,63.582615 54.869122,69.856211 64.381692,70.407961 51.017094,62.223677 45.233942,39.029763 55.451525,27.003668 Z"
     style="fill:#478267;fill-opacity:1;stroke-width:1.02176"
     id="path36" />
  <path
     id="path38"
     style="fill:#1d7043;fill-opacity:1;stroke-width:1.0246"
     class="cls-3"
     d="m 94.940488,0.0207327 c -14.86205,-0.42876 -29.39747,5.818893 -40.30125,16.3046873 -10.61353,6.42686 -17.949773,18.391519 -17.888131,30.867188 0.08215,17.635551 17.406391,31.031781 34.513381,25.544941 0.64729,0.32696 1.31457,0.64359 2.05434,0.92968 1.13019,0.45979 1.85867,-1.36922 0.82096,-1.9414 -14.38427,-7.99016 -16.75796,-29.262822 -1.3257,-37.671893 16.2542,-8.848427 31.204122,5.783129 33.998782,21.283211 3.08234,17.206422 -6.46133,35.198362 -14.547342,49.789073 -7.19213,12.98655 -15.68013,25.23786 -24.25931,37.3457 -17.31249,24.37915 -36.06264,47.95194 -48.813256,75.08984 A 151.14774,150.31087 0 0 0 5.8357963,262.44653 c -9.586075,30.30535 -8.446566,65.81191 11.6092077,91.74414 10.849832,14.02874 25.902734,22.37715 42.208324,25.72852 9.68882,3.51484 21.38163,3.80999 31.07046,3.38086 12.719792,1.23632 26.034602,2.17644 37.449542,-3.26954 6.90444,-3.29006 13.23466,-8.02116 19.24522,-13.15039 0.59592,-0.34739 1.19178,-0.6843 1.77742,-1.02148 34.67635,-20.95626 55.25594,-59.26061 55.06072,-99.4668 -0.10274,-21.12996 -6.64761,-40.49397 -16.02819,-59.26367 -10.3464,-20.68039 -23.03499,-41.15607 -23.09663,-65.00391 0,-11.83196 3.08127,-23.97956 11.30085,-32.7871 12.0314,-12.751551 28.85157,-8.06235 37.8109,5.57812 5.86673,8.93017 8.40347,21.61107 2.46482,31.1543 -5.43519,8.73603 -16.59181,9.81751 -20.72215,-0.58399 -3.257,-8.17406 1.43679,-17.29838 4.78627,-24.72656 0.85278,-1.90047 -1.32459,-4.29087 -3.08152,-3.01367 a 2.6302644,2.6157013 0 0 0 -0.57545,0.11328 c -14.1274,4.414 -21.92503,19.75068 -19.41806,33.95312 3.17482,17.93186 23.02531,25.40988 39.28981,20.25 18.23718,-5.78315 29.39358,-25.1339 30.05114,-43.43359 0.80141,-18.79013 -8.39448,-37.611701 -22.99449,-49.392581 -26.07661,-21.03801 -64.6044,-12.09699 -83.28339,13.36524 6.90445,-28.39468 7.72558,-66.077167 -19.42985,-84.0703313 -8.43791,-5.590295 -17.47301,-8.25251 -26.390262,-8.509765 z m -3.91228,5.625 c 15.040442,-0.233974 30.131632,6.5170133 38.563132,19.2519533 19.03859,28.742061 4.96223,71.185753 -8.51786,99.396504 -27.145162,56.79954 -75.732622,103.93317 -89.079171,166.99609 -4.109795,19.60754 -3.391327,46.716 7.386589,65.7207 0.51373,1.4509 1.02893,2.87168 1.65567,4.27149 -0.58905,-0.17711 -1.1647,-0.37578 -1.72637,-0.59375 A 62.232466,61.887901 0 0 1 22.490509,343.31958 c -3.082336,-6.63121 -5.043806,-14.12162 -6.636354,-20.99805 a 240.33014,238.99949 0 0 1 -5.334214,-30.81641 c 2.373401,-30.73449 19.008485,-59.9353 36.392927,-85.55078 13.79861,-20.33299 28.21294,-40.26829 42.33007,-60.38672 12.647872,-18.0136 25.502082,-36.87567 30.485192,-58.628901 4.39747,-19.17842 2.8158,-40.941161 -9.91427,-56.798846 C 100.00175,17.878774 84.127738,9.7039397 68.253678,11.655498 a 52.564191,52.273156 0 0 1 12.45175,-4.7187503 c 3.38287,-0.810382 6.85191,-1.237021 10.32278,-1.291015 z M 68.683798,19.155498 a 25.686176,25.543958 0 0 0 -12.27697,7.857422 c -10.27446,12.036313 -4.44932,35.220329 8.97941,43.353529 -9.55526,-0.51088 -18.37047,-6.78386 -21.05211,-16.306642 l -0.0196,0.01 c -2.60972,-9.246919 1.12883,-19.300855 7.48873,-26.187506 a 27.155425,27.005072 0 0 1 16.88058,-8.726563 z m 11.96075,3.56836 c 4.04888,0.106386 8.13554,0.944919 12.00003,2.328125 a 42.443837,42.208836 0 0 1 8.651422,7.152343 c 15.12402,16.348134 14.85664,40.625013 8.21933,60.539073 -6.93526,20.680391 -20.650682,38.469491 -33.278002,55.982431 -19.52149,27.0255 -41.72554,53.96829 -57.43521,83.7832 8.188759,-21.65106 21.11474,-41.70686 34.17361,-60.47656 18.90502,-27.19921 39.35125,-53.79713 50.838112,-85.185551 4.65434,-12.73111 8.3215,-27.93487 3.08152,-41.064471 -3.92485,-9.788441 -13.049452,-17.910879 -24.002042,-18.115231 -15.82267,-0.306527 -24.85353,12.19937 -24.60694,24.60351 -2.9796,-8.347759 -2.94861,-17.278132 3.63733,-23.132807 5.32988,-4.738404 11.9727,-6.591373 18.72084,-6.414062 z M 194.5565,74.362549 a 44.539829,44.293223 0 0 1 8.45698,1.54296 c 18.65843,5.38467 32.49829,22.57062 36.22793,41.197271 3.88558,19.34076 -5.62456,44.93839 -25.88747,49.97266 0.53048,-0.23769 1.05435,-0.48193 1.56727,-0.75586 25.35739,-13.45656 21.57692,-49.25792 8.0249,-69.478521 -6.74006,-10.03367 -16.65616,-18.84105 -28.38961,-22.47851 z m -11.39316,2.98828 c 12.34124,-0.36307 25.05342,7.33239 32.84788,16.13867 0.52743,0.59262 1.03976,1.19849 1.53978,1.81836 -12.14442,-11.88305 -31.45948,-17.87089 -46.55267,-8.4707 -19.49067,12.15892 -22.12143,40.124921 -19.61446,60.570311 a 125.5643,124.86908 0 0 0 3.99674,19.16797 110.90263,110.28859 0 0 1 -6.86418,-22.24414 c -4.39747,-23.50045 1.40752,-59.834561 29.39517,-66.312501 1.73254,-0.40104 3.48871,-0.61611 5.25174,-0.66797 z m 3.02849,8.22461 c 19.17698,-0.78931 38.73218,17.714421 39.9497,37.339841 v 0.25586 c -0.0514,-0.20435 -0.10378,-0.40938 -0.15515,-0.60352 -4.9523,-16.95097 -23.32354,-34.269191 -42.12582,-27.167961 -18.88448,7.152301 -26.0137,29.630441 -25.33559,47.919921 0.87333,23.50044 12.85297,43.86561 23.23018,64.30078 a 163.98055,163.07263 0 0 1 9.31918,22.00781 c -12.32936,-20.54756 -25.30562,-41.04483 -32.06622,-64.22851 -6.32907,-21.6715 -9.72116,-54.67415 8.82426,-71.931651 5.61498,-5.22374 11.96713,-7.62947 18.35946,-7.89257 z m -31.11957,2.32422 c -19.25436,23.929571 -14.44498,57.555891 -2.63962,83.580071 8.46617,18.65731 20.35233,35.49619 30.26719,53.37696 a 150.70593,149.87151 0 0 1 14.31364,34.36132 102.7447,102.17583 0 0 1 -1.09003,22.23438 110.75879,110.14555 0 0 1 -41.69374,70.18359 c 23.76485,-22.95891 40.19443,-52.50737 39.14644,-87.13476 -0.81169,-26.9029 -15.31028,-46.74654 -30.34183,-67.88672 A 142.81514,142.02441 0 0 1 147.4598,168.78247 c -1.60281,-4.74096 -3.19539,-9.50243 -4.70574,-14.30469 -0.44523,-1.41684 -0.86754,-2.84102 -1.26482,-4.27148 a 111.5602,110.94252 0 0 1 -2.43536,-34.86133 0.73976186,0.73566599 0 0 0 0,-0.28711 47.200917,46.939577 0 0 1 12.16501,-23.500001 c 1.2124,-1.2772 2.51769,-2.4934 3.85337,-3.6582 z m -25.13134,35.916011 c -0.69866,19.24993 7.54249,38.77398 13.96404,56.64453 l -0.0628,-0.01 a 275.15032,273.62688 0 0 1 16.43868,83.53906 c 0.0925,3.12658 0.0925,6.36664 0,9.64648 -1.24322,14.8155 -5.41388,29.02669 -13.86977,41.89063 a 60.619375,60.283741 0 0 1 -11.1889,12.80273 36.577114,36.374596 0 0 1 -15.11297,6.13086 c -14.70277,2.50331 -29.354212,-4.08709 -39.515662,-14.4375 -17.83649,-18.15664 -19.36761,-43.93591 -19.39843,-68.21289 a 107.53261,106.93723 0 0 1 2.68087,-12.33203 c 2.05488,-5.43575 4.22311,-10.6875 6.16499,-15.63281 a 0.6575661,0.65392532 0 0 0 0,-0.33789 c 8.35314,-13.83461 17.4663,-27.28082 26.1585,-40.75782 12.226622,-18.85144 24.556132,-38.26342 33.741502,-58.93359 z m 57.4352,6.88672 c -0.32194,0.58581 -0.63348,1.17496 -0.93487,1.76758 l -0.24746,0.0703 c 0.36303,-0.63349 0.75765,-1.24527 1.18233,-1.83789 z m 39.01091,15.78516 c -3.50359,7.59166 -9.47257,13.89543 -17.81543,16.34765 a 16.562446,16.470744 0 0 1 -11.33227,-0.44922 v -0.01 a 19.21326,19.106881 0 0 0 14.38432,-0.91016 30.946705,30.775361 0 0 0 14.76338,-14.97851 z m -63.40378,58.41406 c 10.07926,14.23309 20.31409,28.27101 24.03346,45.85547 8.85659,41.93296 -13.98368,77.6646 -45.19752,102.95312 l -0.0314,-0.01 c 2.7741,-3.49442 5.35311,-7.08026 7.76761,-10.56446 11.62043,-16.74662 21.04108,-35.39454 26.08584,-55.17578 4.7879,-18.80035 5.36355,-38.51984 -1.02716,-57.01367 a 189.80029,188.74941 0 0 0 -11.63081,-26.04492 z m -2.76335,3.97461 c 2.9796,5.89554 5.8361,11.84151 8.34307,17.9414 7.59283,18.45296 8.53706,38.04019 3.44092,57.31055 -4.63378,17.54359 -13.54069,33.77959 -23.73296,48.69727 a 181.50879,180.50382 0 0 1 -11.30281,15.04101 78.815462,78.379081 0 0 0 8.53946,-15.20508 l 0.0511,-0.041 a 2.3323048,2.3193914 0 0 0 0.11195,-1.30664 c 27.49449,-25.05352 23.77564,-71.75917 18.2377,-105.24219 -0.9658,-5.84446 -2.22941,-11.55521 -3.68839,-17.19531 z m 31.96409,25.75781 0.36923,0.50195 a 0.85278103,0.8480594 0 0 0 0.28871,0.24414 c 0.17467,0.62328 0.33839,1.23611 0.50278,1.85938 -0.38358,-0.8719 -0.77029,-1.74038 -1.16072,-2.60547 z M 55.513208,265.56372 c -0.0916,0.65587 -0.10848,1.27466 -0.12765,1.89453 -0.0463,-0.24442 -0.0986,-0.48802 -0.13945,-0.74024 -0.0514,-0.31674 0.17463,-0.76602 0.2671,-1.15429 z m -8.81639,15.95898 c -0.21576,34.99522 15.41153,68.73421 43.87182,88.74024 -1.20555,0.21797 -2.41019,0.40583 -3.61573,0.5625 -31.55289,-15.5716 -44.3145,-54.44034 -40.25609,-89.30274 z m -5.24977,12.20117 a 96.076572,95.54462 0 0 0 5.9902,38.23243 c 5.72288,15.06071 15.95674,30.22377 29.69371,39.60351 a 73.102856,72.698104 0 0 1 -11.42655,-0.76562 52.821052,52.528595 0 0 1 -20.54736,-21.45703 c -1.30486,-4.51618 -2.21046,-9.16507 -3.03241,-13.29297 a 120.79695,120.12813 0 0 1 -0.67759,-42.32032 z m 13.95225,21.36329 a 52.327877,52.038151 0 0 0 4.12047,5.99804 l 0.01,-0.041 c 10.33612,18.89231 26.85749,34.73943 45.998832,45.08984 a 89.552283,89.056455 0 0 1 -8.947992,2.7793 c -20.2612,-12.34284 -33.97868,-31.74598 -41.18107,-53.82617 z m 13.11166,14.58203 a 39.751925,39.531829 0 0 0 12.20429,6.05859 l 0.0118,-0.0508 1.1293,0.29492 c 10.49023,8.69516 23.138092,14.45931 33.833812,22.92969 a 23.97034,23.837622 0 0 1 -0.16497,2.83984 c -1.60283,0.81741 -3.23617,1.5836 -4.89036,2.29883 A 106.01198,105.42502 0 0 1 68.510968,329.66917 Z" />
  <metadata
     id="metadata15213">
    <rdf:RDF>
      <cc:Work
         rdf:about="">
        <dc:title>Free Koru Vector-01</dc:title>
      </cc:Work>
    </rdf:RDF>
  </metadata>
</svg>
